<svg width="21" height="21" viewBox="0 0 21 21" fill="none" xmlns="http://www.w3.org/2000/svg">
<path d="M14 8.75C14 9.67826 13.6313 10.5685 12.9749 11.2249C12.3185 11.8813 11.4283 12.25 10.5 12.25C9.57174 12.25 8.6815 11.8813 8.02513 11.2249C7.36875 10.5685 7 9.67826 7 8.75" stroke="#48BB78" stroke-width="1.75" stroke-linecap="round" stroke-linejoin="round"/>
<path d="M2.71509 5.27972H18.2848" stroke="#48BB78" stroke-width="1.75" stroke-linecap="round" stroke-linejoin="round"/>
<path d="M2.975 4.78363C2.74781 5.08654 2.625 5.45498 2.625 5.83362V17.5C2.625 17.9641 2.80937 18.4092 3.13756 18.7374C3.46575 19.0656 3.91087 19.25 4.375 19.25H16.625C17.0891 19.25 17.5342 19.0656 17.8624 18.7374C18.1906 18.4092 18.375 17.9641 18.375 17.5V5.83362C18.375 5.45498 18.2522 5.08654 18.025 4.78363L16.275 2.45C16.112 2.23266 15.9006 2.05625 15.6576 1.93475C15.4146 1.81325 15.1467 1.75 14.875 1.75H6.125C5.85332 1.75 5.58537 1.81325 5.34238 1.93475C5.09938 2.05625 4.88801 2.23266 4.725 2.45L2.975 4.78363Z" stroke="#48BB78" stroke-width="1.75" stroke-linecap="round" stroke-linejoin="round"/>
</svg>
