<svg width="161" height="161" viewBox="0 0 161 161" fill="none" xmlns="http://www.w3.org/2000/svg">
<g filter="url(#filter0_d_234_20)">
<path d="M24.2882 45.3676C24.2882 33.7258 33.7258 24.2882 45.3676 24.2882H115.632C127.274 24.2882 136.712 33.7258 136.712 45.3676V115.632C136.712 127.274 127.274 136.712 115.632 136.712H45.3676C33.7258 136.712 24.2882 127.274 24.2882 115.632V45.3676Z" fill="#6B46C1" shape-rendering="crispEdges"/>
<path d="M78.1578 103.289C78.8699 103.7 79.6777 103.917 80.5 103.917C81.3223 103.917 82.1301 103.7 82.8422 103.289L99.2373 93.9206C99.9487 93.5098 100.54 92.9193 100.951 92.2081C101.362 91.4969 101.579 90.6901 101.579 89.8686V71.1314C101.579 70.3099 101.362 69.5031 100.951 68.7919C100.54 68.0807 99.9487 67.4902 99.2373 67.0794L82.8422 57.7108C82.1301 57.2997 81.3223 57.0832 80.5 57.0832C79.6777 57.0832 78.8699 57.2997 78.1578 57.7108L61.7627 67.0794C61.0513 67.4902 60.4604 68.0807 60.0493 68.7919C59.6383 69.5031 59.4214 70.3099 59.4206 71.1314V89.8686C59.4214 90.6901 59.6383 91.4969 60.0493 92.2081C60.4604 92.9193 61.0513 93.5098 61.7627 93.9206L78.1578 103.289Z" stroke="white" stroke-width="5.83333" stroke-linecap="round" stroke-linejoin="round"/>
<path d="M80.5 103.922V80.5" stroke="white" stroke-width="5.83333" stroke-linecap="round" stroke-linejoin="round"/>
<path d="M60.0998 68.7892L80.5 80.5L100.9 68.7892" stroke="white" stroke-width="5.83333" stroke-linecap="round" stroke-linejoin="round"/>
<path d="M69.9603 62.3951L91.0397 74.4572" stroke="white" stroke-width="5.83333" stroke-linecap="round" stroke-linejoin="round"/>
</g>
<defs>
<filter id="filter0_d_234_20" x="-1.43592e-05" y="-1.43592e-05" width="161" height="161" filterUnits="userSpaceOnUse" color-interpolation-filters="sRGB">
<feFlood flood-opacity="0" result="BackgroundImageFix"/>
<feColorMatrix in="SourceAlpha" type="matrix" values="0 0 0 0 0 0 0 0 0 0 0 0 0 0 0 0 0 0 127 0" result="hardAlpha"/>
<feMorphology radius="8.06557" operator="dilate" in="SourceAlpha" result="effect1_dropShadow_234_20"/>
<feOffset/>
<feGaussianBlur stdDeviation="8.06555"/>
<feComposite in2="hardAlpha" operator="out"/>
<feColorMatrix type="matrix" values="0 0 0 0 0.419608 0 0 0 0 0.27451 0 0 0 0 0.756863 0 0 0 0.08 0"/>
<feBlend mode="normal" in2="BackgroundImageFix" result="effect1_dropShadow_234_20"/>
<feBlend mode="normal" in="SourceGraphic" in2="effect1_dropShadow_234_20" result="shape"/>
</filter>
</defs>
</svg>
